<!DOCTYPE svg PUBLIC "-//W3C//DTD SVG 1.1//EN" "http://www.w3.org/Graphics/SVG/1.1/DTD/svg11.dtd">

<svg fill="#34d399" width="64px" height="64px" viewBox="0 0 1069.00 1069.00" style="fill-rule:evenodd;clip-rule:evenodd;stroke-linejoin:round;stroke-miterlimit:2;" version="1.1" xml:space="preserve" xmlns="http://www.w3.org/2000/svg" xmlns:serif="http://www.serif.com/" xmlns:xlink="http://www.w3.org/1999/xlink" stroke="#34d399" transform="rotate(45)" stroke-width="0.010690000000000002">

<g id="SVGRepo_bgCarrier" stroke-width="0"/>

<g id="SVGRepo_tracerCarrier" stroke-linecap="round" stroke-linejoin="round" stroke="#CCCCCC" stroke-width="2.138"/>

<g id="SVGRepo_iconCarrier"> <rect height="1066.67" id="Mouse" style="fill:none;" width="1066.67" x="1.515" y="1.665"/> <g> <path d="M503.598,139.165l0,144.095c0,17.248 14.003,31.25 31.25,31.25c17.248,0 31.25,-14.002 31.25,-31.25l0,-144.095c0,-17.247 -14.002,-31.25 -31.25,-31.25c-17.247,0 -31.25,14.003 -31.25,31.25Z" style="fill-opacity:0.5;"/> <path d="M532.716,108.286c0.643,-0.243 1.352,-0.371 2.132,-0.371c189.848,0 343.75,153.902 343.75,343.75c0,106.684 0,221.828 0,312.5c0,52.49 -20.851,102.831 -57.968,139.948c-37.117,37.117 -87.458,57.969 -139.948,57.969c-90.25,-0 -201.418,-0 -291.667,-0c-52.491,-0 -102.832,-20.852 -139.948,-57.969c-37.117,-37.117 -57.969,-87.458 -57.969,-139.948c0,-90.672 0,-205.816 0,-312.5c0,-189.848 153.902,-343.75 343.75,-343.75c-0.778,0 -1.487,0.127 -2.133,0.37l0.001,0.001Zm2.124,62.125l0.008,0.004c155.33,0 281.249,125.919 281.25,281.248l0,312.502c0,35.915 -14.267,70.358 -39.662,95.754c-25.396,25.396 -59.84,39.663 -95.754,39.663c-90.25,-0 -201.418,-0 -291.667,-0c-35.915,-0 -70.359,-14.267 -95.754,-39.663c-25.396,-25.396 -39.663,-59.839 -39.663,-95.754l0,-312.5c0,-155.33 125.92,-281.25 281.25,-281.25c-0.002,0 -0.005,-0.001 -0.008,-0.004Zm96.395,177.933c0.001,-25.549 -10.149,-50.052 -28.215,-68.118c-18.066,-18.066 -42.568,-28.216 -68.118,-28.216l-0.108,0c-25.549,0 -50.052,10.15 -68.118,28.216c-18.066,18.066 -28.215,42.569 -28.215,68.118c0,43.071 0,99.334 0,142.404c0,25.549 10.149,50.052 28.215,68.118c18.066,18.066 42.569,28.216 68.118,28.216l0.108,-0c25.549,-0 50.052,-10.15 68.118,-28.216c18.066,-18.066 28.216,-42.569 28.215,-68.118l0,-142.404Zm-62.5,-0l0,142.404c0,8.973 -3.564,17.579 -9.909,23.924c-6.345,6.345 -14.95,9.909 -23.922,9.91c-0.004,-0 -0.109,-0 -0.109,-0c-8.975,-0.001 -17.58,-3.565 -23.924,-9.91c-6.345,-6.345 -9.91,-14.951 -9.91,-23.924l0,-142.404c0,-8.973 3.565,-17.579 9.91,-23.924c6.344,-6.345 14.949,-9.909 23.922,-9.91c0.003,0 0.109,0 0.109,0c8.974,0.001 17.579,3.565 23.924,9.91c6.345,6.345 9.909,14.951 9.909,23.924Zm-36.021,-240.058l-0.028,0.011c-0.118,0.046 -0.235,0.096 -0.349,0.149l-0.048,0.021c0.139,-0.067 0.28,-0.127 0.425,-0.181Z"/> </g> </g>

</svg>